<?xml version="1.0" encoding="utf-8"?>
<svg viewBox="39.474 50 35.964 51.754" xmlns="http://www.w3.org/2000/svg">
  <path fill-rule="evenodd" clip-rule="evenodd" d="M 64.87 75.092 C 64.826 75.37 64.72 75.635 64.56 75.867 C 64.4 76.098 64.189 76.29 63.944 76.429 C 63.45 76.748 63.019 76.907 62.582 77.066 C 61.651 77.388 60.671 77.709 59.635 78.082 C 58.543 78.455 57.563 78.828 56.689 79.098 C 55.599 79.47 54.563 79.792 53.578 80.164 C 52.837 80.482 52.141 80.895 51.508 81.393 C 50.92 81.927 50.406 82.537 49.981 83.209 C 49.544 83.954 49.269 84.916 49.269 86.037 C 49.269 88.281 49.814 89.988 50.907 91.055 C 51.997 92.179 54.018 92.711 57.013 92.711 C 60.067 92.711 62.139 92.125 63.235 90.95 C 64.322 89.775 64.867 88.122 64.867 85.988 L 64.867 75.092 L 64.87 75.092 Z M 57.015 51.439 C 62.363 51.439 66.289 52.455 68.796 54.537 C 71.305 56.568 72.559 59.18 72.559 62.276 L 72.559 88.654 C 72.559 89.721 72.343 90.896 71.963 92.176 C 71.577 93.462 70.816 94.634 69.616 95.698 C 68.472 96.77 66.89 97.678 64.872 98.372 C 62.854 99.066 60.237 99.439 57.018 99.439 C 53.804 99.439 51.182 99.066 49.166 98.372 C 47.151 97.678 45.567 96.77 44.423 95.698 C 43.358 94.739 42.552 93.528 42.078 92.176 C 41.692 90.898 41.474 89.723 41.474 88.656 L 41.474 84.44 C 41.474 82.196 42.073 80.113 43.274 78.295 C 44.474 76.429 46.163 75.149 48.346 74.346 C 49.436 73.974 50.691 73.601 52.107 73.12 C 53.527 72.637 54.833 72.156 56.144 71.732 C 57.455 71.302 58.599 70.873 59.579 70.498 C 60.17 70.261 60.77 70.048 61.378 69.86 L 62.36 69.379 C 62.746 69.166 63.124 68.845 63.507 68.418 C 63.888 67.994 64.214 67.513 64.489 66.978 C 64.78 66.399 64.93 65.759 64.926 65.111 L 64.926 63.402 C 64.93 62.775 64.799 62.155 64.541 61.584 C 64.325 60.941 63.888 60.355 63.289 59.823 C 62.689 59.288 61.869 58.861 60.89 58.537 C 59.908 58.221 58.602 58.059 57.126 58.059 C 54.072 58.059 52.053 58.651 50.963 59.874 C 50.038 60.944 49.493 62.278 49.385 63.772 C 49.385 64.093 49.112 64.307 48.783 64.307 L 42.132 64.415 C 41.974 64.415 41.822 64.354 41.709 64.243 C 41.597 64.132 41.532 63.981 41.53 63.823 L 41.53 62.281 C 41.53 60.782 41.806 59.394 42.405 58.059 C 43.006 56.722 43.934 55.604 45.186 54.64 C 46.441 53.681 48.079 52.881 50.04 52.347 C 51.951 51.704 54.295 51.439 57.02 51.439 L 57.015 51.439 Z" fill="#0A3871"/>
</svg>